<mxfile host="app.diagrams.net" modified="2022-05-19T09:23:37.526Z" agent="5.0 (Macintosh; Intel Mac OS X 10_15_7) AppleWebKit/537.36 (KHTML, like Gecko) Chrome/101.0.0.0 Safari/537.36" etag="V1CZMWCikPujsbH5ZDU-" version="18.0.2" type="github">
  <diagram id="wF572Wm0Wm0B_0m2SiIz" name="Page-1">
    <mxGraphModel dx="1158" dy="801" grid="1" gridSize="10" guides="1" tooltips="1" connect="1" arrows="1" fold="1" page="1" pageScale="1" pageWidth="850" pageHeight="1100" math="0" shadow="0">
      <root>
        <mxCell id="0" />
        <mxCell id="1" parent="0" />
        <mxCell id="cvu3p9xgEHNrfDI-l18D-1" value="bank_meta" style="rounded=1;whiteSpace=wrap;html=1;" vertex="1" parent="1">
          <mxGeometry x="360" y="380" width="120" height="40" as="geometry" />
        </mxCell>
        <mxCell id="cvu3p9xgEHNrfDI-l18D-2" value="bank_code" style="rounded=1;whiteSpace=wrap;html=1;" vertex="1" parent="1">
          <mxGeometry x="540" y="380" width="120" height="40" as="geometry" />
        </mxCell>
        <mxCell id="cvu3p9xgEHNrfDI-l18D-4" value="claim_data" style="rounded=1;whiteSpace=wrap;html=1;" vertex="1" parent="1">
          <mxGeometry x="80" y="380" width="120" height="40" as="geometry" />
        </mxCell>
        <mxCell id="cvu3p9xgEHNrfDI-l18D-5" value="" style="endArrow=classic;html=1;rounded=0;entryX=0;entryY=0.5;entryDx=0;entryDy=0;exitX=1;exitY=0.5;exitDx=0;exitDy=0;" edge="1" parent="1" source="cvu3p9xgEHNrfDI-l18D-1" target="cvu3p9xgEHNrfDI-l18D-2">
          <mxGeometry width="50" height="50" relative="1" as="geometry">
            <mxPoint x="300" y="440" as="sourcePoint" />
            <mxPoint x="350" y="390" as="targetPoint" />
          </mxGeometry>
        </mxCell>
      </root>
    </mxGraphModel>
  </diagram>
</mxfile>
